<svg width="191" height="30" viewBox="0 0 191 30" fill="none" xmlns="http://www.w3.org/2000/svg">
<rect y="0.5" width="28" height="28" rx="14" fill="#ED4609"/>
<path d="M46.1112 5.57147H49.5428V22.5L46.1112 22.5V21.3064C45.1471 22.2934 43.9382 22.7869 42.4845 22.7869C40.8395 22.7869 39.4622 22.1863 38.3528 20.985C37.251 19.7838 36.7001 18.2918 36.7001 16.509C36.7001 14.7263 37.251 13.2343 38.3528 12.033C39.4622 10.8317 40.8395 10.2311 42.4845 10.2311C43.9382 10.2311 45.1471 10.7246 46.1112 11.7116V5.57147ZM43.1731 19.4701C44.0148 19.4701 44.7148 19.187 45.2734 18.6208C45.8319 18.0546 46.1112 17.3507 46.1112 16.509C46.1112 15.6674 45.8319 14.9635 45.2734 14.3973C44.7148 13.8311 44.0148 13.548 43.1731 13.548C42.3391 13.548 41.6428 13.8311 41.0843 14.3973C40.5334 14.9635 40.258 15.6674 40.258 16.509C40.258 17.3507 40.5334 18.0546 41.0843 18.6208C41.6428 19.187 42.3391 19.4701 43.1731 19.4701ZM56.52 22.7869C54.676 22.7869 53.1343 22.1863 51.8948 20.985C50.6629 19.7838 50.047 18.2918 50.047 16.509C50.047 14.7263 50.6629 13.2343 51.8948 12.033C53.1343 10.8317 54.676 10.2311 56.52 10.2311C57.7366 10.2311 58.8383 10.5066 59.8254 11.0575C60.8124 11.6007 61.5852 12.3544 62.1437 13.3184C62.7023 14.2748 62.9815 15.3384 62.9815 16.509C62.9815 17.6797 62.7023 18.747 62.1437 19.7111C61.5852 20.6675 60.8124 21.4212 59.8254 21.9721C58.8383 22.5153 57.7366 22.7869 56.52 22.7869ZM54.4197 18.6208C54.9783 19.187 55.6784 19.4701 56.52 19.4701C57.3616 19.4701 58.0617 19.187 58.6203 18.6208C59.1788 18.0546 59.4581 17.3507 59.4581 16.509C59.4581 15.6674 59.1788 14.9635 58.6203 14.3973C58.0617 13.8311 57.3616 13.548 56.52 13.548C55.6784 13.548 54.9783 13.8311 54.4197 14.3973C53.8612 14.9635 53.5819 15.6674 53.5819 16.509C53.5819 17.3507 53.8612 18.0546 54.4197 18.6208ZM78.0041 10.2311C79.3507 10.2311 80.4257 10.6366 81.2291 11.4477C82.0401 12.2587 82.4457 13.3337 82.4457 14.6727V22.5H79.014V15.7056C79.014 15.0553 78.8228 14.535 78.4402 14.1448C78.0653 13.7469 77.5603 13.548 76.9252 13.548C76.2672 13.548 75.7316 13.7507 75.3185 14.1562C74.9053 14.5618 74.6987 15.0935 74.6987 15.7515V22.5H71.2671V15.7056C71.2671 15.0553 71.0758 14.535 70.6932 14.1448C70.3107 13.7469 69.8019 13.548 69.1668 13.548C68.5088 13.548 67.9732 13.7507 67.56 14.1562C67.1468 14.5618 66.9403 15.0935 66.9403 15.7515V22.5H63.5086V10.518L66.9403 10.518V11.6657C67.8278 10.7093 68.964 10.2311 70.3489 10.2311C71.1523 10.2311 71.8677 10.3956 72.4951 10.7246C73.1225 11.046 73.6275 11.5012 74.0101 12.0904C74.9894 10.8509 76.3208 10.2311 78.0041 10.2311ZM85.1763 8.98013C84.5795 8.98013 84.0784 8.78119 83.6729 8.38332C83.2673 7.9778 83.0646 7.47282 83.0646 6.86836C83.0646 6.27156 83.2673 5.77423 83.6729 5.37636C84.0784 4.97849 84.5795 4.77956 85.1763 4.77956C85.7885 4.77956 86.2973 4.97849 86.7028 5.37636C87.116 5.77423 87.3225 6.27156 87.3225 6.86836C87.3225 7.47282 87.116 7.9778 86.7028 8.38332C86.2973 8.78119 85.7885 8.98013 85.1763 8.98013ZM83.4663 22.5V10.518L86.8979 10.518V22.5H83.4663ZM95.1834 10.2311C96.5607 10.2311 97.6701 10.6481 98.5118 11.4821C99.3534 12.3084 99.7742 13.4102 99.7742 14.7875V22.5H96.3426V15.9466C96.3426 15.2198 96.1284 14.6383 95.6999 14.2021C95.2791 13.766 94.7167 13.548 94.0128 13.548C93.2783 13.548 92.6815 13.7737 92.2224 14.2251C91.771 14.6689 91.5452 15.258 91.5452 15.9926V22.5L88.1136 22.5V10.518H91.5452V11.7116C92.5093 10.7246 93.722 10.2311 95.1834 10.2311ZM102.482 8.98013C101.885 8.98013 101.384 8.78119 100.978 8.38332C100.573 7.9778 100.37 7.47282 100.37 6.86836C100.37 6.27156 100.573 5.77423 100.978 5.37636C101.384 4.97849 101.885 4.77956 102.482 4.77956C103.094 4.77956 103.603 4.97849 104.008 5.37636C104.422 5.77423 104.628 6.27156 104.628 6.86836C104.628 7.47282 104.422 7.9778 104.008 8.38332C103.603 8.78119 103.094 8.98013 102.482 8.98013ZM100.772 22.5V10.518H104.204V22.5H100.772ZM111.181 22.7869C109.337 22.7869 107.795 22.1863 106.555 20.985C105.324 19.7838 104.708 18.2918 104.708 16.509C104.708 14.7263 105.324 13.2343 106.555 12.033C107.795 10.8317 109.337 10.2311 111.181 10.2311C112.397 10.2311 113.499 10.5066 114.486 11.0575C115.473 11.6007 116.246 12.3544 116.804 13.3184C117.363 14.2748 117.642 15.3384 117.642 16.509C117.642 17.6797 117.363 18.747 116.804 19.7111C116.246 20.6675 115.473 21.4212 114.486 21.9721C113.499 22.5153 112.397 22.7869 111.181 22.7869ZM109.08 18.6208C109.639 19.187 110.339 19.4701 111.181 19.4701C112.022 19.4701 112.722 19.187 113.281 18.6208C113.84 18.0546 114.119 17.3507 114.119 16.509C114.119 15.6674 113.84 14.9635 113.281 14.3973C112.722 13.8311 112.022 13.548 111.181 13.548C110.339 13.548 109.639 13.8311 109.08 14.3973C108.522 14.9635 108.243 15.6674 108.243 16.509C108.243 17.3507 108.522 18.0546 109.08 18.6208ZM125.239 10.2311C126.616 10.2311 127.726 10.6481 128.567 11.4821C129.409 12.3084 129.83 13.4102 129.83 14.7875V22.5H126.398V15.9466C126.398 15.2198 126.184 14.6383 125.756 14.2021C125.335 13.766 124.772 13.548 124.068 13.548C123.334 13.548 122.737 13.7737 122.278 14.2251C121.827 14.6689 121.601 15.258 121.601 15.9926V22.5H118.169V10.518L121.601 10.518V11.7116C122.565 10.7246 123.778 10.2311 125.239 10.2311ZM140.434 5.57147H143.074V22.5H140.434V20.7785C139.378 22.1174 137.978 22.7869 136.233 22.7869C135.124 22.7869 134.118 22.5153 133.215 21.9721C132.312 21.4212 131.604 20.6675 131.092 19.7111C130.587 18.7547 130.334 17.6873 130.334 16.509C130.334 15.3307 130.587 14.2634 131.092 13.3069C131.604 12.3505 132.312 11.6007 133.215 11.0575C134.118 10.5066 135.124 10.2311 136.233 10.2311C137.985 10.2311 139.386 10.8968 140.434 12.2281V5.57147ZM136.75 20.239C137.806 20.239 138.682 19.8833 139.378 19.1717C140.082 18.4525 140.434 17.5649 140.434 16.509C140.434 15.4455 140.082 14.5579 139.378 13.8464C138.682 13.1271 137.806 12.7675 136.75 12.7675C135.686 12.7675 134.799 13.1271 134.087 13.8464C133.383 14.5579 133.031 15.4455 133.031 16.509C133.031 17.5649 133.383 18.4525 134.087 19.1717C134.799 19.8833 135.686 20.239 136.75 20.239ZM146.022 8.48662C145.548 8.48662 145.15 8.32594 144.829 8.00458C144.507 7.68323 144.347 7.28919 144.347 6.82246C144.347 6.34042 144.507 5.94255 144.829 5.62885C145.15 5.31515 145.548 5.1583 146.022 5.1583C146.504 5.1583 146.906 5.31515 147.227 5.62885C147.549 5.94255 147.709 6.34042 147.709 6.82246C147.709 7.29684 147.549 7.69471 147.227 8.01606C146.906 8.32977 146.504 8.48662 146.022 8.48662ZM144.702 22.5V10.518H147.342V22.5H144.702ZM156.557 22.6148C157.72 22.6148 158.688 22.917 159.461 23.5215C160.234 24.1336 160.708 24.9675 160.884 26.0234L158.153 26.758C158.122 26.2759 157.915 25.8895 157.533 25.5988C157.15 25.3157 156.661 25.1741 156.064 25.1741H151.944C150.88 25.1741 150.019 24.891 149.361 24.3248C148.703 23.7663 148.374 23.0318 148.374 22.1213C148.374 21.5245 148.516 20.9659 148.799 20.4456C149.082 19.9177 149.465 19.5122 149.947 19.2291C148.868 18.2267 148.328 16.9758 148.328 15.4761C148.328 13.9841 148.86 12.7369 149.924 11.7346C150.987 10.7323 152.311 10.2311 153.895 10.2311C154.874 10.2311 155.785 10.4415 156.626 10.8624C156.779 10.2196 157.116 9.71465 157.636 9.34739C158.164 8.98013 158.807 8.7965 159.564 8.7965H160.528V11.2411H159.702C159.335 11.2411 159.025 11.3367 158.772 11.528C158.528 11.7116 158.39 11.9603 158.359 12.274C159.101 13.1998 159.472 14.2672 159.472 15.4761C159.472 16.9604 158.937 18.2038 157.866 19.2061C156.795 20.2084 155.471 20.7096 153.895 20.7096C153.076 20.7096 152.334 20.5795 151.668 20.3194C151.24 20.6025 151.025 20.985 151.025 21.4671C151.025 21.8037 151.155 22.0792 151.416 22.2934C151.676 22.5077 152.016 22.6148 152.437 22.6148H156.557ZM153.895 12.7216C153.076 12.7216 152.391 12.9856 151.84 13.5135C151.297 14.0338 151.025 14.688 151.025 15.4761C151.025 16.2565 151.297 16.9107 151.84 17.4387C152.391 17.9589 153.076 18.2191 153.895 18.2191C154.706 18.2191 155.383 17.9551 155.926 17.4272C156.469 16.8992 156.741 16.2489 156.741 15.4761C156.741 14.688 156.469 14.0338 155.926 13.5135C155.383 12.9856 154.706 12.7216 153.895 12.7216ZM162.02 8.48662C161.545 8.48662 161.147 8.32594 160.826 8.00458C160.505 7.68323 160.344 7.28919 160.344 6.82246C160.344 6.34042 160.505 5.94255 160.826 5.62885C161.147 5.31515 161.545 5.1583 162.02 5.1583C162.502 5.1583 162.903 5.31515 163.225 5.62885C163.546 5.94255 163.707 6.34042 163.707 6.82246C163.707 7.29684 163.546 7.69471 163.225 8.01606C162.903 8.32977 162.502 8.48662 162.02 8.48662ZM160.7 22.5V10.518L163.339 10.518V22.5H160.7ZM172.176 12.9053H168.79V18.5749C168.79 19.1258 168.939 19.5428 169.238 19.8259C169.544 20.1013 169.976 20.239 170.535 20.239C171.063 20.239 171.61 20.1013 172.176 19.8259V22.2934C171.525 22.6224 170.795 22.7869 169.984 22.7869C168.721 22.7869 167.769 22.4541 167.126 21.7884C166.483 21.1228 166.162 20.1931 166.162 18.9995V12.9053H164.13V10.518H166.162V7.40778H168.79V10.518H172.176V12.9053ZM182.057 10.518H184.696V22.5H182.057V20.7785C181.001 22.1174 179.601 22.7869 177.856 22.7869C176.747 22.7869 175.741 22.5153 174.838 21.9721C173.935 21.4212 173.227 20.6675 172.714 19.7111C172.209 18.7547 171.957 17.6873 171.957 16.509C171.957 15.3307 172.209 14.2634 172.714 13.3069C173.227 12.3505 173.935 11.6007 174.838 11.0575C175.741 10.5066 176.747 10.2311 177.856 10.2311C179.608 10.2311 181.008 10.8968 182.057 12.2281V10.518ZM178.373 20.239C179.428 20.239 180.305 19.8833 181.001 19.1717C181.705 18.4525 182.057 17.5649 182.057 16.509C182.057 15.4455 181.705 14.5579 181.001 13.8464C180.305 13.1271 179.428 12.7675 178.373 12.7675C177.309 12.7675 176.421 13.1271 175.71 13.8464C175.006 14.5579 174.654 15.4455 174.654 16.509C174.654 17.5649 175.006 18.4525 175.71 19.1717C176.421 19.8833 177.309 20.239 178.373 20.239ZM186.325 22.5V5.57147L188.965 5.57147V22.5H186.325Z" fill="#171717"/>
</svg>
